<mxfile host="65bd71144e" pages="2">
    <diagram id="Y1Ypbf706UVIuq5K6Q58" name="Context">
        <mxGraphModel dx="1249" dy="790" grid="1" gridSize="10" guides="1" tooltips="1" connect="1" arrows="1" fold="1" page="1" pageScale="1" pageWidth="827" pageHeight="1169" background="#F1FAEE" math="0" shadow="0">
            <root>
                <mxCell id="0"/>
                <mxCell id="1" parent="0"/>
                <mxCell id="FLjWXgGNFJg_sXlB7Dut-17" value="" style="rounded=0;whiteSpace=wrap;html=1;hachureGap=4;pointerEvents=0;fillColor=#A8DADC;strokeColor=#457B9D;fontColor=#1D3557;" parent="1" vertex="1">
                    <mxGeometry x="40" y="210" width="232" height="320" as="geometry"/>
                </mxCell>
                <mxCell id="FLjWXgGNFJg_sXlB7Dut-1" value="" style="ellipse;shape=cloud;whiteSpace=wrap;html=1;hachureGap=4;pointerEvents=0;fontSize=14;fillColor=#A8DADC;strokeColor=#457B9D;fontColor=#1D3557;" parent="1" vertex="1">
                    <mxGeometry x="360" y="320" width="256" height="190" as="geometry"/>
                </mxCell>
                <mxCell id="FLjWXgGNFJg_sXlB7Dut-2" value="Todo App - Exercise 6 - Context Diagram" style="text;html=1;strokeColor=none;fillColor=none;align=center;verticalAlign=middle;whiteSpace=wrap;rounded=0;hachureGap=4;pointerEvents=0;fontSize=14;fontStyle=5;fontColor=#1D3557;" parent="1" vertex="1">
                    <mxGeometry x="40" y="40" width="280" height="20" as="geometry"/>
                </mxCell>
                <mxCell id="FLjWXgGNFJg_sXlB7Dut-3" value="User" style="verticalLabelPosition=bottom;html=1;verticalAlign=top;align=center;strokeColor=none;fillColor=#A8DADC;shape=mxgraph.azure.user;hachureGap=4;pointerEvents=0;fontSize=14;fontColor=#1D3557;" parent="1" vertex="1">
                    <mxGeometry x="130" y="100" width="47.5" height="50" as="geometry"/>
                </mxCell>
                <mxCell id="FLjWXgGNFJg_sXlB7Dut-4" value="" style="sketch=0;html=1;dashed=0;whitespace=wrap;fillColor=#A8DADC;strokeColor=#457B9D;points=[[0.005,0.63,0],[0.1,0.2,0],[0.9,0.2,0],[0.5,0,0],[0.995,0.63,0],[0.72,0.99,0],[0.5,1,0],[0.28,0.99,0]];shape=mxgraph.kubernetes.icon;prIcon=api;hachureGap=4;pointerEvents=0;fontSize=14;fontColor=#1D3557;" parent="1" vertex="1">
                    <mxGeometry x="410" y="391" width="50" height="48" as="geometry"/>
                </mxCell>
                <mxCell id="FLjWXgGNFJg_sXlB7Dut-5" value="Trello" style="image;image=img/lib/atlassian/Trello_Logo.svg;hachureGap=4;pointerEvents=0;fontSize=14;labelBackgroundColor=#F1FAEE;fillColor=#A8DADC;strokeColor=#457B9D;fontColor=#1D3557;" parent="1" vertex="1">
                    <mxGeometry x="496" y="380" width="70" height="70" as="geometry"/>
                </mxCell>
                <mxCell id="FLjWXgGNFJg_sXlB7Dut-6" value="Trello API's" style="text;html=1;strokeColor=none;fillColor=none;align=center;verticalAlign=middle;whiteSpace=wrap;rounded=0;hachureGap=4;pointerEvents=0;fontSize=14;fontColor=#1D3557;" parent="1" vertex="1">
                    <mxGeometry x="390" y="450" width="90" height="20" as="geometry"/>
                </mxCell>
                <mxCell id="FLjWXgGNFJg_sXlB7Dut-8" value="HTML Rendered Application&amp;nbsp;&lt;br&gt;allows user to maintain a Todo List" style="whiteSpace=wrap;html=1;aspect=fixed;hachureGap=4;pointerEvents=0;fillColor=#A8DADC;strokeColor=#457B9D;fontColor=#1D3557;" parent="1" vertex="1">
                    <mxGeometry x="110" y="230" width="100" height="100" as="geometry"/>
                </mxCell>
                <mxCell id="FLjWXgGNFJg_sXlB7Dut-10" value="" style="endArrow=classic;startArrow=classic;html=1;startSize=14;endSize=14;sourcePerimeterSpacing=8;targetPerimeterSpacing=8;labelBackgroundColor=#F1FAEE;strokeColor=#457B9D;fontColor=#1D3557;" parent="1" edge="1">
                    <mxGeometry width="50" height="50" relative="1" as="geometry">
                        <mxPoint x="153.25" y="230" as="sourcePoint"/>
                        <mxPoint x="153.25" y="170" as="targetPoint"/>
                    </mxGeometry>
                </mxCell>
                <mxCell id="FLjWXgGNFJg_sXlB7Dut-12" value="Python Web Application&lt;br&gt;uses API calls to create / update cards on a custom Trello board&lt;br&gt;Board / column Id's setp separately and keys held in env file" style="rounded=0;whiteSpace=wrap;html=1;hachureGap=4;pointerEvents=0;fillColor=#A8DADC;strokeColor=#457B9D;fontColor=#1D3557;" parent="1" vertex="1">
                    <mxGeometry x="87" y="370" width="146" height="110" as="geometry"/>
                </mxCell>
                <mxCell id="FLjWXgGNFJg_sXlB7Dut-13" value="" style="endArrow=classic;startArrow=classic;html=1;startSize=14;endSize=14;sourcePerimeterSpacing=8;targetPerimeterSpacing=8;entryX=0.5;entryY=1;entryDx=0;entryDy=0;exitX=0.5;exitY=0;exitDx=0;exitDy=0;labelBackgroundColor=#F1FAEE;strokeColor=#457B9D;fontColor=#1D3557;" parent="1" source="FLjWXgGNFJg_sXlB7Dut-12" target="FLjWXgGNFJg_sXlB7Dut-8" edge="1">
                    <mxGeometry width="50" height="50" relative="1" as="geometry">
                        <mxPoint x="300" y="350" as="sourcePoint"/>
                        <mxPoint x="300" y="290" as="targetPoint"/>
                        <Array as="points"/>
                    </mxGeometry>
                </mxCell>
                <mxCell id="FLjWXgGNFJg_sXlB7Dut-14" value="Trello API Calls" style="endArrow=classic;startArrow=classic;html=1;startSize=14;endSize=14;sourcePerimeterSpacing=8;targetPerimeterSpacing=8;exitX=1;exitY=0.5;exitDx=0;exitDy=0;entryX=0.16;entryY=0.55;entryDx=0;entryDy=0;entryPerimeter=0;labelBackgroundColor=#F1FAEE;strokeColor=#457B9D;fontColor=#1D3557;" parent="1" source="FLjWXgGNFJg_sXlB7Dut-12" target="FLjWXgGNFJg_sXlB7Dut-1" edge="1">
                    <mxGeometry width="50" height="50" relative="1" as="geometry">
                        <mxPoint x="250" y="424.5" as="sourcePoint"/>
                        <mxPoint x="380" y="424.5" as="targetPoint"/>
                    </mxGeometry>
                </mxCell>
            </root>
        </mxGraphModel>
    </diagram>
</mxfile>